<svg width="512" height="472" viewBox="0 0 512 472" fill="none" xmlns="http://www.w3.org/2000/svg">
<path d="M455.984 112C451.56 112 447.984 108.416 447.984 104C447.984 99.584 451.56 96 455.984 96C478.04 96 495.984 78.056 495.984 56C495.984 33.944 478.04 16 455.984 16C451.56 16 447.984 12.416 447.984 8C447.984 3.584 451.56 0 455.984 0C486.856 0 511.984 25.12 511.984 56C511.984 86.88 486.856 112 455.984 112Z" fill="#CFD8B9"/>
<path d="M455.984 447.984C451.56 447.984 447.984 444.408 447.984 439.984C447.984 435.56 451.56 431.984 455.984 431.984C478.04 431.984 495.984 414.04 495.984 391.984C495.984 387.56 499.56 383.984 503.984 383.984C508.408 383.984 511.984 387.56 511.984 391.984C511.984 422.856 486.856 447.984 455.984 447.984Z" fill="#CFD8B9"/>
<path d="M451.984 88.0078C427.728 88.0078 407.984 68.2718 407.984 44.0078C407.984 19.7438 427.728 0.0078125 451.984 0.0078125C456.408 0.0078125 459.984 3.59181 459.984 8.00781C459.984 12.4238 456.408 16.0078 451.984 16.0078C436.544 16.0078 423.984 28.5678 423.984 44.0078C423.984 59.4478 436.544 72.0078 451.984 72.0078C456.408 72.0078 459.984 75.5918 459.984 80.0078C459.984 84.4238 456.408 88.0078 451.984 88.0078Z" fill="#CFD8B9"/>
<path d="M451.984 423.984C427.728 423.984 407.984 404.24 407.984 379.984C407.984 375.56 411.56 371.984 415.984 371.984C420.408 371.984 423.984 375.56 423.984 379.984C423.984 395.424 436.544 407.984 451.984 407.984C456.408 407.984 459.984 411.56 459.984 415.984C459.984 420.408 456.408 423.984 451.984 423.984Z" fill="#CFD8B9"/>
<path d="M451.984 64.0398C440.944 64.0398 431.968 55.0558 431.968 44.0238C431.968 32.9918 440.944 24.0078 451.984 24.0078C456.408 24.0078 459.984 27.5918 459.984 32.0078C459.984 36.4238 456.408 40.0078 451.984 40.0078C449.776 40.0078 447.968 41.8078 447.968 44.0238C447.968 46.2398 449.776 48.0398 451.984 48.0398C456.408 48.0398 459.984 51.6238 459.984 56.0398C459.984 60.4558 456.408 64.0398 451.984 64.0398Z" fill="#CFD8B9"/>
<path d="M455.984 88C451.56 88 447.984 84.416 447.984 80C447.984 75.584 451.56 72 455.984 72C464.808 72 471.984 64.824 471.984 56C471.984 47.176 464.808 40 455.984 40C451.56 40 447.984 36.416 447.984 32C447.984 27.584 451.56 24 455.984 24C473.632 24 487.984 38.352 487.984 56C487.984 73.648 473.632 88 455.984 88Z" fill="#CFD8B9"/>
<path d="M455.984 447.984C451.56 447.984 447.984 444.408 447.984 439.984V104C447.984 99.584 451.56 96 455.984 96C460.408 96 463.984 99.584 463.984 104V439.984C463.984 444.408 460.408 447.984 455.984 447.984Z" fill="#CFD8B9"/>
<path d="M503.984 399.984C499.56 399.984 495.984 396.408 495.984 391.984V56C495.984 51.584 499.56 48 503.984 48C508.408 48 511.984 51.584 511.984 56V391.984C511.984 396.408 508.408 399.984 503.984 399.984Z" fill="#CFD8B9"/>
<path d="M455.968 88.008C451.544 88.008 447.968 84.424 447.968 80.008V56.04C447.968 51.624 451.544 48.04 455.968 48.04C460.392 48.04 463.968 51.624 463.968 56.04V80.008C463.968 84.424 460.392 88.008 455.968 88.008Z" fill="#CFD8B9"/>
<path d="M455.968 64.04H451.984C447.56 64.04 443.984 60.456 443.984 56.04C443.984 51.624 447.56 48.04 451.984 48.04H455.968C460.392 48.04 463.968 51.624 463.968 56.04C463.968 60.456 460.392 64.04 455.968 64.04Z" fill="#CFD8B9"/>
<path d="M455.984 88H451.984C447.56 88 443.984 84.416 443.984 80C443.984 75.584 447.56 72 451.984 72H455.984C460.408 72 463.984 75.584 463.984 80C463.984 84.416 460.408 88 455.984 88Z" fill="#CFD8B9"/>
<path d="M455.984 40.0078H451.984C447.56 40.0078 443.984 36.4238 443.984 32.0078C443.984 27.5918 447.56 24.0078 451.984 24.0078H455.984C460.408 24.0078 463.984 27.5918 463.984 32.0078C463.984 36.4238 460.408 40.0078 455.984 40.0078Z" fill="#CFD8B9"/>
<path d="M415.984 387.984C411.56 387.984 407.984 384.408 407.984 379.984V44.0078C407.984 39.5918 411.56 36.0078 415.984 36.0078C420.408 36.0078 423.984 39.5918 423.984 44.0078V379.984C423.984 384.408 420.408 387.984 415.984 387.984Z" fill="#CFD8B9"/>
<path d="M351.984 143.96C347.56 143.96 343.984 140.376 343.984 135.96C343.984 131.544 347.56 127.96 351.984 127.96C365.216 127.96 375.984 117.192 375.984 103.96C375.984 90.728 365.216 79.96 351.984 79.96C347.56 79.96 343.984 76.376 343.984 71.96C343.984 67.544 347.56 63.96 351.984 63.96C374.04 63.96 391.984 81.904 391.984 103.96C391.984 126.016 374.04 143.96 351.984 143.96Z" fill="#CFD8B9"/>
<path d="M351.984 448C347.56 448 343.984 444.424 343.984 440C343.984 435.576 347.56 432 351.984 432C365.216 432 375.984 421.232 375.984 408C375.984 403.576 379.56 400 383.984 400C388.408 400 391.984 403.576 391.984 408C391.984 430.056 374.04 448 351.984 448Z" fill="#CFD8B9"/>
<path d="M351.984 448C347.56 448 343.984 444.424 343.984 440V135.96C343.984 131.544 347.56 127.96 351.984 127.96C356.408 127.96 359.984 131.544 359.984 135.96V440C359.984 444.424 356.408 448 351.984 448Z" fill="#CFD8B9"/>
<path d="M383.984 416C379.56 416 375.984 412.424 375.984 408V103.96C375.984 99.544 379.56 95.96 383.984 95.96C388.408 95.96 391.984 99.544 391.984 103.96V408C391.984 412.424 388.408 416 383.984 416Z" fill="#CFD8B9"/>
<path d="M351.984 79.9199H39.8398C35.4158 79.9199 31.8398 76.3359 31.8398 71.9199C31.8398 67.5039 35.4158 63.9199 39.8398 63.9199H351.984C356.408 63.9199 359.984 67.5039 359.984 71.9199C359.984 76.3359 356.408 79.9199 351.984 79.9199Z" fill="#CFD8B9"/>
<path d="M351.984 383.968H264.016C259.592 383.968 256.016 380.392 256.016 375.968C256.016 371.544 259.592 367.968 264.016 367.968H351.984C356.408 367.968 359.984 371.544 359.984 375.968C359.984 380.392 356.408 383.968 351.984 383.968Z" fill="#CFD8B9"/>
<path d="M40 384.08C17.944 384.08 0 366.136 0 344.08C0 339.656 3.576 336.08 8 336.08C12.424 336.08 16 339.656 16 344.08C16 357.312 26.768 368.08 40 368.08C44.424 368.08 48 371.656 48 376.08C48 380.504 44.424 384.08 40 384.08Z" fill="#CFD8B9"/>
<path d="M8 48.0156C3.576 48.0156 0 44.4316 0 40.0156C0 17.9596 17.944 0.015625 40 0.015625C44.424 0.015625 48 3.59963 48 8.01562C48 12.4316 44.424 16.0156 40 16.0156C26.768 16.0156 16 26.7836 16 40.0156C16 44.4316 12.424 48.0156 8 48.0156Z" fill="#CFD8B9"/>
<path d="M40 80.0476C35.576 80.0476 32 76.4636 32 72.0476V8.01562C32 3.59963 35.576 0.015625 40 0.015625C44.424 0.015625 48 3.59963 48 8.01562V72.0476C48 76.4636 44.424 80.0476 40 80.0476Z" fill="#CFD8B9"/>
<path d="M8 352.08C3.576 352.08 0 348.504 0 344.08V40.0156C0 35.5996 3.576 32.0156 8 32.0156C12.424 32.0156 16 35.5996 16 40.0156V344.08C16 348.504 12.424 352.08 8 352.08Z" fill="#CFD8B9"/>
<path d="M40.032 80.0476C17.96 80.0476 0 62.0876 0 40.0156C0 35.5996 3.576 32.0156 8 32.0156C12.424 32.0156 16 35.5996 16 40.0156C16 53.2636 26.784 64.0476 40.032 64.0476C44.456 64.0476 48.032 67.6316 48.032 72.0476C48.032 76.4636 44.456 80.0476 40.032 80.0476Z" fill="#CFD8B9"/>
<path d="M87.936 384.08H40C35.576 384.08 32 380.504 32 376.08C32 371.656 35.576 368.08 40 368.08H87.936C92.36 368.08 95.936 371.656 95.936 376.08C95.936 380.504 92.36 384.08 87.936 384.08Z" fill="#CFD8B9"/>
<path d="M235.8 384.064H116.112C111.688 384.064 108.112 380.488 108.112 376.064C108.112 371.64 111.688 368.064 116.112 368.064H235.8C240.224 368.064 243.8 371.64 243.8 376.064C243.8 380.488 240.216 384.064 235.8 384.064Z" fill="#CFD8B9"/>
<path d="M455.984 16H451.984C447.56 16 443.984 12.416 443.984 8C443.984 3.584 447.56 0 451.984 0H455.984C460.408 0 463.984 3.584 463.984 8C463.984 12.416 460.408 16 455.984 16Z" fill="#CFD8B9"/>
<path d="M175.992 247.944C149.52 247.944 127.992 226.416 127.992 199.96C127.992 173.496 149.52 151.96 175.992 151.96C202.464 151.96 223.992 173.488 223.992 199.96C223.992 226.416 202.464 247.944 175.992 247.944ZM175.992 167.968C158.344 167.968 143.992 182.32 143.992 199.968C143.992 217.6 158.344 231.952 175.992 231.952C193.64 231.952 207.992 217.608 207.992 199.968C207.992 182.32 193.64 167.968 175.992 167.968Z" fill="#CFD8B9"/>
<path d="M175.992 223.944C162.76 223.944 151.992 213.184 151.992 199.96C151.992 186.728 162.76 175.96 175.992 175.96C189.224 175.96 199.992 186.728 199.992 199.96C199.992 213.184 189.224 223.944 175.992 223.944ZM175.992 191.96C171.576 191.96 167.992 195.552 167.992 199.96C167.992 204.36 171.576 207.944 175.992 207.944C180.408 207.944 183.992 204.36 183.992 199.96C183.992 195.552 180.408 191.96 175.992 191.96Z" fill="#CFD8B9"/>
<path d="M188 132C183.576 132 180 128.416 180 124C180 121.792 178.2 119.992 175.992 119.992C173.784 119.992 171.984 121.784 171.984 124C171.984 128.416 168.408 132 163.984 132C159.56 132 155.984 128.416 155.984 124C155.984 112.968 164.96 103.992 175.992 103.992C187.024 103.992 196 112.968 196 124C196 128.416 192.424 132 188 132Z" fill="#CFD8B9"/>
<path d="M264.024 448.144C260.944 448.144 258.008 446.36 256.696 443.36L168.672 243.176C166.888 239.136 168.728 234.416 172.776 232.632C176.832 230.84 181.544 232.696 183.312 236.736L271.336 436.92C273.12 440.968 271.28 445.688 267.232 447.456C266.184 447.92 265.096 448.144 264.024 448.144Z" fill="#CFD8B9"/>
<path d="M264.016 472C259.592 472 256.016 468.424 256.016 464V376.08C256.016 371.656 259.592 368.08 264.016 368.08C268.44 368.08 272.016 371.656 272.016 376.08V464C272.016 468.424 268.44 472 264.016 472Z" fill="#CFD8B9"/>
<path d="M87.928 448.144C86.856 448.144 85.76 447.928 84.72 447.464C80.672 445.688 78.84 440.968 80.616 436.928L168.64 236.744C170.416 232.704 175.12 230.848 179.176 232.64C183.224 234.424 185.056 239.144 183.28 243.184L95.256 443.36C93.944 446.36 91.008 448.144 87.928 448.144Z" fill="#CFD8B9"/>
<path d="M264.024 384.08C260.944 384.08 258.008 382.296 256.696 379.296L193.152 234.8C191.368 230.76 193.208 226.04 197.256 224.256C201.32 222.472 206.032 224.32 207.792 228.36L271.336 372.864C273.12 376.904 271.28 381.632 267.232 383.4C266.184 383.856 265.096 384.08 264.024 384.08Z" fill="#CFD8B9"/>
<path d="M87.928 384.08C86.856 384.08 85.76 383.864 84.72 383.4C80.672 381.624 78.84 376.896 80.616 372.864L144.176 228.336C145.952 224.296 150.664 222.448 154.712 224.232C158.76 226.016 160.592 230.736 158.816 234.776L95.256 379.304C93.944 382.296 91.008 384.08 87.928 384.08Z" fill="#CFD8B9"/>
<path d="M87.936 472C83.512 472 79.936 468.424 79.936 464V376.08C79.936 371.656 83.512 368.08 87.936 368.08C92.36 368.08 95.936 371.656 95.936 376.08V464C95.936 468.424 92.36 472 87.936 472Z" fill="#CFD8B9"/>
<path d="M188 169.8C183.576 169.8 180 166.216 180 161.8V123.984C180 119.568 183.576 115.984 188 115.984C192.424 115.984 196 119.568 196 123.984V161.8C196 166.216 192.424 169.8 188 169.8Z" fill="#CFD8B9"/>
<path d="M163.984 169.8C159.56 169.8 155.984 166.216 155.984 161.8V123.984C155.984 119.568 159.56 115.984 163.984 115.984C168.408 115.984 171.984 119.568 171.984 123.984V161.8C171.984 166.216 168.408 169.8 163.984 169.8Z" fill="#CFD8B9"/>
<path d="M218.24 344.017H134.04C129.616 344.017 126.04 340.441 126.04 336.017C126.04 331.593 129.616 328.017 134.04 328.017H218.24C222.664 328.017 226.24 331.593 226.24 336.017C226.24 340.441 222.664 344.017 218.24 344.017Z" fill="#CFD8B9"/>
<path d="M264 344.017H246.408C241.984 344.017 238.408 340.441 238.408 336.017C238.408 331.593 241.984 328.017 246.408 328.017H264C268.424 328.017 272 331.593 272 336.017C272 340.441 268.424 344.017 264 344.017Z" fill="#CFD8B9"/>
<path d="M105.544 344.048H87.9839C83.5599 344.048 79.9839 340.472 79.9839 336.048C79.9839 331.624 83.5599 328.048 87.9839 328.048H105.544C109.968 328.048 113.544 331.624 113.544 336.048C113.544 340.472 109.968 344.048 105.544 344.048Z" fill="#CFD8B9"/>
</svg>
