<svg width="464" height="512" viewBox="0 0 464 512" fill="none" xmlns="http://www.w3.org/2000/svg">
<path d="M423.936 511.984C419.512 511.984 415.936 508.408 415.936 503.984C415.936 499.56 419.512 495.984 423.936 495.984C437.168 495.984 447.936 485.216 447.936 471.984C447.936 458.752 437.168 447.984 423.936 447.984C419.512 447.984 415.936 444.408 415.936 439.984C415.936 435.56 419.512 431.984 423.936 431.984C445.992 431.984 463.936 449.928 463.936 471.984C463.936 494.04 445.992 511.984 423.936 511.984Z" fill="#CFD8B9"/>
<path d="M455.936 239.96C451.512 239.96 447.936 236.376 447.936 231.96C447.936 218.728 437.168 207.96 423.936 207.96C419.512 207.96 415.936 204.376 415.936 199.96C415.936 195.544 419.512 191.96 423.936 191.96C445.992 191.96 463.936 209.904 463.936 231.96C463.936 236.376 460.36 239.96 455.936 239.96Z" fill="#CFD8B9"/>
<path d="M423.936 447.984C419.512 447.984 415.936 444.408 415.936 439.984V199.96C415.936 195.544 419.512 191.96 423.936 191.96C428.36 191.96 431.936 195.544 431.936 199.96V439.984C431.936 444.408 428.36 447.984 423.936 447.984Z" fill="#CFD8B9"/>
<path d="M455.936 479.984C451.512 479.984 447.936 476.408 447.936 471.984V231.96C447.936 227.544 451.512 223.96 455.936 223.96C460.36 223.96 463.936 227.544 463.936 231.96V471.984C463.936 476.408 460.36 479.984 455.936 479.984Z" fill="#CFD8B9"/>
<path d="M40 511.984C17.944 511.984 0 494.04 0 471.984C0 449.928 17.944 431.984 40 431.984C44.424 431.984 48 435.56 48 439.984C48 444.408 44.424 447.984 40 447.984C26.768 447.984 16 458.752 16 471.984C16 485.216 26.768 495.984 40 495.984C44.424 495.984 48 499.56 48 503.984C48 508.408 44.424 511.984 40 511.984Z" fill="#CFD8B9"/>
<path d="M8 239.96C3.576 239.96 0 236.376 0 231.96C0 209.904 17.944 191.96 40 191.96C44.424 191.96 48 195.544 48 199.96C48 204.376 44.424 207.96 40 207.96C26.768 207.96 16 218.728 16 231.96C16 236.376 12.424 239.96 8 239.96Z" fill="#CFD8B9"/>
<path d="M40 447.984C35.576 447.984 32 444.408 32 439.984V199.96C32 195.544 35.576 191.96 40 191.96C44.424 191.96 48 195.544 48 199.96V439.984C48 444.408 44.424 447.984 40 447.984Z" fill="#CFD8B9"/>
<path d="M8 479.984C3.576 479.984 0 476.408 0 471.984V231.96C0 227.544 3.576 223.96 8 223.96C12.424 223.96 16 227.544 16 231.96V471.984C16 476.408 12.424 479.984 8 479.984Z" fill="#CFD8B9"/>
<path d="M159.984 271.888H39.9678C35.5438 271.888 31.9678 268.312 31.9678 263.888C31.9678 259.472 35.5438 255.888 39.9678 255.888H159.984C164.408 255.888 167.984 259.472 167.984 263.888C167.984 268.312 164.408 271.888 159.984 271.888Z" fill="#CFD8B9"/>
<path d="M423.936 511.984H39.9678C35.5438 511.984 31.9678 508.408 31.9678 503.984C31.9678 499.56 35.5438 495.984 39.9678 495.984H423.936C428.36 495.984 431.936 499.56 431.936 503.984C431.936 508.408 428.36 511.984 423.936 511.984Z" fill="#CFD8B9"/>
<path d="M159.984 391.944C155.56 391.944 151.984 388.368 151.984 383.944V127.984C151.984 123.568 155.56 119.984 159.984 119.984C164.408 119.984 167.984 123.568 167.984 127.984V383.944C167.984 388.368 164.408 391.944 159.984 391.944Z" fill="#CFD8B9"/>
<path d="M303.936 391.944C299.512 391.944 295.936 388.368 295.936 383.944V127.984C295.936 123.568 299.512 119.984 303.936 119.984C308.36 119.984 311.936 123.568 311.936 127.984V383.944C311.936 388.368 308.36 391.944 303.936 391.944Z" fill="#CFD8B9"/>
<path d="M303.936 135.984H159.984C155.56 135.984 151.984 132.4 151.984 127.984C151.984 123.568 155.56 119.984 159.984 119.984H303.936C308.36 119.984 311.936 123.568 311.936 127.984C311.936 132.4 308.36 135.984 303.936 135.984Z" fill="#CFD8B9"/>
<path d="M335.952 391.944H127.984C123.56 391.944 119.984 388.368 119.984 383.944C119.984 379.52 123.56 375.944 127.984 375.944H335.952C340.376 375.944 343.952 379.52 343.952 383.944C343.952 388.368 340.376 391.944 335.952 391.944Z" fill="#CFD8B9"/>
<path d="M199.984 351.944C195.56 351.944 191.984 348.368 191.984 343.944V159.976C191.984 155.56 195.56 151.976 199.984 151.976C204.408 151.976 207.984 155.56 207.984 159.976V343.944C207.984 348.368 204.408 351.944 199.984 351.944Z" fill="#CFD8B9"/>
<path d="M231.968 319.944C227.544 319.944 223.968 316.368 223.968 311.944V159.976C223.968 155.56 227.544 151.976 231.968 151.976C236.392 151.976 239.968 155.56 239.968 159.976V311.944C239.968 316.368 236.392 319.944 231.968 319.944Z" fill="#CFD8B9"/>
<path d="M263.952 351.944C259.528 351.944 255.952 348.368 255.952 343.944V159.976C255.952 155.56 259.528 151.976 263.952 151.976C268.376 151.976 271.952 155.56 271.952 159.976V343.944C271.952 348.368 268.376 351.944 263.952 351.944Z" fill="#CFD8B9"/>
<path d="M215.968 135.984C211.544 135.984 207.968 132.4 207.968 127.984V103.984C207.968 99.5684 211.544 95.9844 215.968 95.9844C220.392 95.9844 223.968 99.5684 223.968 103.984V127.984C223.968 132.4 220.392 135.984 215.968 135.984Z" fill="#CFD8B9"/>
<path d="M247.952 135.984C243.528 135.984 239.952 132.4 239.952 127.984V103.984C239.952 99.5684 243.528 95.9844 247.952 95.9844C252.376 95.9844 255.952 99.5684 255.952 103.984V127.984C255.952 132.4 252.376 135.984 247.952 135.984Z" fill="#CFD8B9"/>
<path d="M183.984 135.984C179.56 135.984 175.984 132.4 175.984 127.984V71.9922C175.984 67.5762 179.56 63.9922 183.984 63.9922C188.408 63.9922 191.984 67.5762 191.984 71.9922V127.984C191.984 132.4 188.408 135.984 183.984 135.984Z" fill="#CFD8B9"/>
<path d="M279.936 135.984C275.512 135.984 271.936 132.4 271.936 127.984V71.9922C271.936 67.5762 275.512 63.9922 279.936 63.9922C284.36 63.9922 287.936 67.5762 287.936 71.9922V127.984C287.936 132.4 284.36 135.984 279.936 135.984Z" fill="#CFD8B9"/>
<path d="M279.936 79.9922H183.984C179.56 79.9922 175.984 76.4082 175.984 71.9922C175.984 67.5762 179.56 63.9922 183.984 63.9922H279.936C284.36 63.9922 287.936 67.5762 287.936 71.9922C287.936 76.4082 284.36 79.9922 279.936 79.9922Z" fill="#CFD8B9"/>
<path d="M207.968 79.9922C203.544 79.9922 199.968 76.4082 199.968 71.9922V39.9922C199.968 35.5762 203.544 31.9922 207.968 31.9922C212.392 31.9922 215.968 35.5762 215.968 39.9922V71.9922C215.968 76.4082 212.392 79.9922 207.968 79.9922Z" fill="#CFD8B9"/>
<path d="M255.968 79.9922C251.544 79.9922 247.968 76.4082 247.968 71.9922V39.9922C247.968 35.5762 251.544 31.9922 255.968 31.9922C260.392 31.9922 263.968 35.5762 263.968 39.9922V71.9922C263.968 76.4082 260.392 79.9922 255.968 79.9922Z" fill="#CFD8B9"/>
<path d="M255.968 47.9922H207.968C203.544 47.9922 199.968 44.4082 199.968 39.9922C199.968 35.5762 203.544 31.9922 207.968 31.9922H255.968C260.392 31.9922 263.968 35.5762 263.968 39.9922C263.968 44.4082 260.392 47.9922 255.968 47.9922Z" fill="#CFD8B9"/>
<path d="M231.968 47.992C227.544 47.992 223.968 44.408 223.968 39.992V8C223.968 3.584 227.544 0 231.968 0C236.392 0 239.968 3.584 239.968 8V39.992C239.968 44.408 236.392 47.992 231.968 47.992Z" fill="#CFD8B9"/>
<path d="M231.968 391.944C227.544 391.944 223.968 388.368 223.968 383.944V351.944C223.968 347.52 227.544 343.944 231.968 343.944C236.392 343.944 239.968 347.52 239.968 351.944V383.944C239.968 388.368 236.392 391.944 231.968 391.944Z" fill="#CFD8B9"/>
<path d="M423.936 272.328H303.936C299.512 272.328 295.936 268.752 295.936 264.328C295.936 259.912 299.512 256.328 303.936 256.328H423.936C428.36 256.328 431.936 259.912 431.936 264.328C431.936 268.752 428.36 272.328 423.936 272.328Z" fill="#CFD8B9"/>
<path d="M391.952 432.072H103.968C99.5443 432.072 95.9683 428.496 95.9683 424.072C95.9683 419.648 99.5443 416.072 103.968 416.072H391.952C396.376 416.072 399.952 419.648 399.952 424.072C399.952 428.496 396.376 432.072 391.952 432.072Z" fill="#CFD8B9"/>
<path d="M391.952 464.072C387.528 464.072 383.952 460.496 383.952 456.072V424.072C383.952 419.648 387.528 416.072 391.952 416.072C396.376 416.072 399.952 419.648 399.952 424.072V456.072C399.952 460.496 396.376 464.072 391.952 464.072Z" fill="#CFD8B9"/>
<path d="M391.952 464.072H103.968C99.5443 464.072 95.9683 460.496 95.9683 456.072C95.9683 451.648 99.5443 448.072 103.968 448.072H391.952C396.376 448.072 399.952 451.648 399.952 456.072C399.952 460.496 396.376 464.072 391.952 464.072Z" fill="#CFD8B9"/>
<path d="M103.96 464.072C102.76 464.072 101.536 463.8 100.392 463.232L68.392 447.232C64.44 445.256 62.84 440.448 64.816 436.496C66.8 432.544 71.608 430.952 75.552 432.92L107.552 448.92C111.504 450.896 113.104 455.704 111.128 459.656C109.72 462.456 106.896 464.072 103.96 464.072Z" fill="#CFD8B9"/>
<path d="M71.9762 448.072C69.0402 448.072 66.2162 446.456 64.8082 443.648C62.8322 439.696 64.4322 434.888 68.3842 432.912L100.384 416.912C104.336 414.952 109.136 416.536 111.12 420.488C113.096 424.44 111.496 429.248 107.544 431.224L75.5442 447.224C74.4002 447.8 73.1762 448.072 71.9762 448.072Z" fill="#CFD8B9"/>
<path d="M359.952 464.072C355.528 464.072 351.952 460.496 351.952 456.072V424.072C351.952 419.648 355.528 416.072 359.952 416.072C364.376 416.072 367.952 419.648 367.952 424.072V456.072C367.952 460.496 364.376 464.072 359.952 464.072Z" fill="#CFD8B9"/>
<path d="M327.952 464.072C323.528 464.072 319.952 460.496 319.952 456.072V424.072C319.952 419.648 323.528 416.072 327.952 416.072C332.376 416.072 335.952 419.648 335.952 424.072V456.072C335.952 460.496 332.376 464.072 327.952 464.072Z" fill="#CFD8B9"/>
</svg>
