<svg width="512" height="488" viewBox="0 0 512 488" fill="none" xmlns="http://www.w3.org/2000/svg">
<path d="M256.24 384C251.816 384 248.2 380.424 248.2 376C248.2 371.576 251.736 368 256.152 368H256.24C260.656 368 264.24 371.576 264.24 376C264.24 380.424 260.656 384 256.24 384Z" fill="#CFD8B9"/>
<path d="M504 368H8.37598C3.95198 368 0.375977 364.424 0.375977 360C0.375977 355.576 3.95198 352 8.37598 352H504C508.424 352 512 355.576 512 360C512 364.424 508.424 368 504 368Z" fill="#CFD8B9"/>
<path d="M488 400H24C10.768 400 0 389.232 0 376V24C0 10.768 10.768 0 24 0H488C501.232 0 512 10.768 512 24V376C512 389.232 501.232 400 488 400ZM24 16C19.584 16 16 19.584 16 24V376C16 380.416 19.584 384 24 384H488C492.416 384 496 380.416 496 376V24C496 19.584 492.416 16 488 16H24Z" fill="#CFD8B9"/>
<path d="M184.008 464C183.368 464 182.712 463.92 182.064 463.76C177.776 462.688 175.168 458.344 176.24 454.064L192.24 390.064C193.304 385.776 197.632 383.144 201.936 384.24C206.224 385.312 208.832 389.656 207.76 393.936L191.76 457.936C190.848 461.576 187.592 464 184.008 464Z" fill="#CFD8B9"/>
<path d="M327.992 464C324.408 464 321.152 461.576 320.24 457.936L304.24 393.936C303.16 389.656 305.768 385.312 310.064 384.24C314.336 383.144 318.688 385.768 319.76 390.064L335.76 454.064C336.84 458.344 334.232 462.688 329.936 463.76C329.288 463.92 328.632 464 327.992 464Z" fill="#CFD8B9"/>
<path d="M152 480C147.576 480 144 476.424 144 472C144 458.768 154.768 448 168 448C172.424 448 176 451.576 176 456C176 460.424 172.424 464 168 464C163.584 464 160 467.584 160 472C160 476.424 156.424 480 152 480Z" fill="#CFD8B9"/>
<path d="M360 480C355.576 480 352 476.424 352 472C352 467.584 348.416 464 344 464C339.576 464 336 460.424 336 456C336 451.576 339.576 448 344 448C357.232 448 368 458.768 368 472C368 476.424 364.424 480 360 480Z" fill="#CFD8B9"/>
<path d="M344 464H168C163.576 464 160 460.424 160 456C160 451.576 163.576 448 168 448H344C348.424 448 352 451.576 352 456C352 460.424 348.424 464 344 464Z" fill="#CFD8B9"/>
<path d="M152 488C147.576 488 144 484.424 144 480V472C144 467.576 147.576 464 152 464C156.424 464 160 467.576 160 472V480C160 484.424 156.424 488 152 488Z" fill="#CFD8B9"/>
<path d="M360 488H152C147.576 488 144 484.424 144 480C144 475.576 147.576 472 152 472H360C364.424 472 368 475.576 368 480C368 484.424 364.424 488 360 488Z" fill="#CFD8B9"/>
<path d="M360 488C355.576 488 352 484.424 352 480V472C352 467.576 355.576 464 360 464C364.424 464 368 467.576 368 472V480C368 484.424 364.424 488 360 488Z" fill="#CFD8B9"/>
<path d="M159.976 279.841C155.552 279.841 151.976 276.265 151.976 271.841V158.393C151.976 153.969 155.552 150.393 159.976 150.393C164.4 150.393 167.976 153.969 167.976 158.393V271.841C167.976 276.265 164.4 279.841 159.976 279.841Z" fill="#CFD8B9"/>
<path d="M352.008 279.84C347.584 279.84 344.008 276.264 344.008 271.84V158.704C344.008 154.28 347.584 150.704 352.008 150.704C356.432 150.704 360.008 154.28 360.008 158.704V271.84C360.008 276.264 356.432 279.84 352.008 279.84Z" fill="#CFD8B9"/>
<path d="M143.992 143.856C141.208 143.856 138.512 142.408 137.04 139.824C134.848 135.992 136.184 131.096 140.016 128.912L252.024 64.9124C255.856 62.7044 260.744 64.0564 262.936 67.8884C265.128 71.7204 263.792 76.6164 259.96 78.8004L147.952 142.8C146.704 143.52 145.336 143.856 143.992 143.856Z" fill="#CFD8B9"/>
<path d="M367.992 143.856C366.648 143.856 365.28 143.52 364.032 142.8L252.024 78.8004C248.192 76.6164 246.856 71.7204 249.048 67.8884C251.232 64.0564 256.12 62.7044 259.96 64.9124L371.968 128.912C375.8 131.096 377.136 135.992 374.944 139.824C373.472 142.416 370.776 143.856 367.992 143.856Z" fill="#CFD8B9"/>
<path d="M143.992 175.84C141.208 175.84 138.512 174.392 137.04 171.808C134.848 167.976 136.184 163.08 140.016 160.896L252.024 96.9122C255.856 94.7042 260.744 96.0482 262.936 99.8882C265.128 103.72 263.792 108.616 259.96 110.8L147.952 174.784C146.704 175.504 145.336 175.84 143.992 175.84Z" fill="#CFD8B9"/>
<path d="M367.992 175.84C366.648 175.84 365.28 175.504 364.032 174.784L252.024 110.8C248.192 108.616 246.856 103.72 249.048 99.8882C251.232 96.0482 256.12 94.7042 259.96 96.9122L371.968 160.896C375.8 163.08 377.136 167.976 374.944 171.808C373.472 174.4 370.776 175.84 367.992 175.84Z" fill="#CFD8B9"/>
<path d="M143.984 175.84C139.56 175.84 135.984 172.264 135.984 167.84V135.856C135.984 131.432 139.56 127.856 143.984 127.856C148.408 127.856 151.984 131.432 151.984 135.856V167.84C151.984 172.264 148.408 175.84 143.984 175.84Z" fill="#CFD8B9"/>
<path d="M368 175.84C363.576 175.84 360 172.264 360 167.84V135.856C360 131.432 363.576 127.856 368 127.856C372.424 127.856 376 131.432 376 135.856V167.84C376 172.264 372.424 175.84 368 175.84Z" fill="#CFD8B9"/>
<path d="M271.992 279.841H239.992C235.568 279.841 231.992 276.265 231.992 271.841V215.841C231.992 211.417 235.568 207.841 239.992 207.841H271.992C276.416 207.841 279.992 211.417 279.992 215.841V271.841C279.992 276.265 276.416 279.841 271.992 279.841ZM247.992 263.841H263.992V223.841H247.992V263.841Z" fill="#CFD8B9"/>
<path d="M160.008 279.841C155.584 279.841 152.008 276.265 152.008 271.841V251.841C152.008 249.641 150.208 247.841 148.008 247.841C145.808 247.841 144.008 249.641 144.008 251.841C144.008 256.265 140.432 259.841 136.008 259.841C131.584 259.841 128.008 256.265 128.008 251.841V243.841C128.008 241.641 126.208 239.841 124.008 239.841C121.808 239.841 120.008 241.641 120.008 243.841V251.841C120.008 256.265 116.432 259.841 112.008 259.841C107.584 259.841 104.008 256.265 104.008 251.841C104.008 249.641 102.208 247.841 100.008 247.841C97.8081 247.841 96.0081 249.641 96.0081 251.841V271.841C96.0081 276.265 92.4321 279.841 88.0081 279.841C83.5841 279.841 80.0081 276.265 80.0081 271.841V251.841C80.0081 240.809 88.9761 231.841 100.008 231.841C102.512 231.841 104.904 232.305 107.12 233.145C110.664 227.561 116.92 223.841 124.008 223.841C131.096 223.841 137.352 227.561 140.896 233.145C143.104 232.305 145.504 231.841 148.008 231.841C159.04 231.841 168.008 240.809 168.008 251.841V271.841C168.008 276.265 164.432 279.841 160.008 279.841Z" fill="#CFD8B9"/>
<path d="M423.976 279.841C419.552 279.841 415.976 276.265 415.976 271.841V251.841C415.976 249.641 414.176 247.841 411.976 247.841C409.776 247.841 407.976 249.641 407.976 251.841C407.976 256.265 404.4 259.841 399.976 259.841C395.552 259.841 391.976 256.265 391.976 251.841V243.841C391.976 241.641 390.176 239.841 387.976 239.841C385.776 239.841 383.976 241.641 383.976 243.841V251.841C383.976 256.265 380.4 259.841 375.976 259.841C371.552 259.841 367.976 256.265 367.976 251.841C367.976 249.641 366.176 247.841 363.976 247.841C361.776 247.841 359.976 249.641 359.976 251.841V271.841C359.976 276.265 356.4 279.841 351.976 279.841C347.552 279.841 343.976 276.265 343.976 271.841V251.841C343.976 240.809 352.944 231.841 363.976 231.841C366.48 231.841 368.872 232.305 371.088 233.145C374.632 227.561 380.888 223.841 387.976 223.841C395.064 223.841 401.32 227.561 404.864 233.145C407.072 232.305 409.472 231.841 411.976 231.841C423.008 231.841 431.976 240.809 431.976 251.841V271.841C431.976 276.265 428.4 279.841 423.976 279.841Z" fill="#CFD8B9"/>
<path d="M423.976 279.841H88.0081C83.5841 279.841 80.0081 276.265 80.0081 271.841C80.0081 267.417 83.5841 263.841 88.0081 263.841H423.976C428.4 263.841 431.976 267.417 431.976 271.841C431.976 276.265 428.4 279.841 423.976 279.841Z" fill="#CFD8B9"/>
<path d="M216.048 231.92H184.04C179.616 231.92 176.04 228.344 176.04 223.92V191.92C176.04 187.496 179.616 183.92 184.04 183.92H216.048C220.472 183.92 224.048 187.496 224.048 191.92V223.92C224.048 228.344 220.472 231.92 216.048 231.92ZM192.04 215.92H208.048V199.92H192.04V215.92Z" fill="#CFD8B9"/>
<path d="M328.056 231.92H296.048C291.624 231.92 288.048 228.344 288.048 223.92V191.92C288.048 187.496 291.624 183.92 296.048 183.92H328.056C332.48 183.92 336.056 187.496 336.056 191.92V223.92C336.056 228.344 332.48 231.92 328.056 231.92ZM304.048 215.92H320.056V199.92H304.048V215.92Z" fill="#CFD8B9"/>
<path d="M256.04 191.904C242.808 191.904 232.04 181.136 232.04 167.904C232.04 154.672 242.808 143.904 256.04 143.904C269.272 143.904 280.04 154.672 280.04 167.904C280.04 181.136 269.272 191.904 256.04 191.904ZM256.04 159.904C251.624 159.904 248.04 163.488 248.04 167.904C248.04 172.32 251.624 175.904 256.04 175.904C260.456 175.904 264.04 172.32 264.04 167.904C264.04 163.488 260.456 159.904 256.04 159.904Z" fill="#CFD8B9"/>
<path d="M504 48.0156H8C3.576 48.0156 0 44.4396 0 40.0156C0 35.5916 3.576 32.0156 8 32.0156H504C508.424 32.0156 512 35.5916 512 40.0156C512 44.4396 508.424 48.0156 504 48.0156Z" fill="#CFD8B9"/>
<path d="M32.144 32C27.72 32 24.104 28.424 24.104 24C24.104 19.576 27.64 16 32.056 16H32.144C36.56 16 40.144 19.576 40.144 24C40.144 28.424 36.552 32 32.144 32Z" fill="#CFD8B9"/>
<path d="M56.1679 32C51.7439 32 48.1279 28.424 48.1279 24C48.1279 19.576 51.6639 16 56.0799 16H56.1679C60.5839 16 64.1679 19.576 64.1679 24C64.1679 28.424 60.5759 32 56.1679 32Z" fill="#CFD8B9"/>
<path d="M80.184 32C75.76 32 72.144 28.424 72.144 24C72.144 19.576 75.68 16 80.096 16H80.184C84.6 16 88.184 19.576 88.184 24C88.184 28.424 84.6 32 80.184 32Z" fill="#CFD8B9"/>
<path d="M39.9919 368C35.5679 368 31.9919 364.424 31.9919 360V40.0156C31.9919 35.5916 35.5679 32.0156 39.9919 32.0156C44.4159 32.0156 47.9919 35.5916 47.9919 40.0156V360C47.9919 364.424 44.4159 368 39.9919 368Z" fill="#CFD8B9"/>
<path d="M39.992 303.984H8.37598C3.95198 303.984 0.375977 300.408 0.375977 295.984C0.375977 291.56 3.95198 287.984 8.37598 287.984H39.992C44.416 287.984 47.992 291.56 47.992 295.984C47.992 300.408 44.416 303.984 39.992 303.984Z" fill="#CFD8B9"/>
<path d="M39.992 336.016H8.37598C3.95198 336.016 0.375977 332.44 0.375977 328.016C0.375977 323.592 3.95198 320.016 8.37598 320.016H39.992C44.416 320.016 47.992 323.592 47.992 328.016C47.992 332.44 44.416 336.016 39.992 336.016Z" fill="#CFD8B9"/>
<path d="M39.992 271.984H8.37598C3.95198 271.984 0.375977 268.408 0.375977 263.984C0.375977 259.56 3.95198 255.984 8.37598 255.984H39.992C44.416 255.984 47.992 259.56 47.992 263.984C47.992 268.408 44.416 271.984 39.992 271.984Z" fill="#CFD8B9"/>
<path d="M39.992 239.984H8.37598C3.95198 239.984 0.375977 236.408 0.375977 231.984C0.375977 227.56 3.95198 223.984 8.37598 223.984H39.992C44.416 223.984 47.992 227.56 47.992 231.984C47.992 236.408 44.416 239.984 39.992 239.984Z" fill="#CFD8B9"/>
<path d="M39.992 207.984H8.37598C3.95198 207.984 0.375977 204.408 0.375977 199.984C0.375977 195.56 3.95198 191.984 8.37598 191.984H39.992C44.416 191.984 47.992 195.56 47.992 199.984C47.992 204.408 44.416 207.984 39.992 207.984Z" fill="#CFD8B9"/>
<path d="M39.992 175.984H8.37598C3.95198 175.984 0.375977 172.408 0.375977 167.984C0.375977 163.56 3.95198 159.984 8.37598 159.984H39.992C44.416 159.984 47.992 163.56 47.992 167.984C47.992 172.408 44.416 175.984 39.992 175.984Z" fill="#CFD8B9"/>
<path d="M39.992 143.984H8.37598C3.95198 143.984 0.375977 140.408 0.375977 135.984C0.375977 131.56 3.95198 127.984 8.37598 127.984H39.992C44.416 127.984 47.992 131.56 47.992 135.984C47.992 140.408 44.416 143.984 39.992 143.984Z" fill="#CFD8B9"/>
<path d="M39.992 111.984H8.37598C3.95198 111.984 0.375977 108.408 0.375977 103.984C0.375977 99.5604 3.95198 95.9844 8.37598 95.9844H39.992C44.416 95.9844 47.992 99.5604 47.992 103.984C47.992 108.408 44.416 111.984 39.992 111.984Z" fill="#CFD8B9"/>
<path d="M39.992 79.9844H8.37598C3.95198 79.9844 0.375977 76.4084 0.375977 71.9844C0.375977 67.5604 3.95198 63.9844 8.37598 63.9844H39.992C44.416 63.9844 47.992 67.5604 47.992 71.9844C47.992 76.4084 44.416 79.9844 39.992 79.9844Z" fill="#CFD8B9"/>
<path d="M472.184 368C467.76 368 464.184 364.424 464.184 360V40.0156C464.184 35.5916 467.76 32.0156 472.184 32.0156C476.608 32.0156 480.184 35.5916 480.184 40.0156V360C480.184 364.424 476.608 368 472.184 368Z" fill="#CFD8B9"/>
<path d="M503.808 207.984H472.192C467.768 207.984 464.192 204.408 464.192 199.984C464.192 195.56 467.768 191.984 472.192 191.984H503.808C508.232 191.984 511.808 195.56 511.808 199.984C511.808 204.408 508.224 207.984 503.808 207.984Z" fill="#CFD8B9"/>
<path d="M503.808 175.984H472.192C467.768 175.984 464.192 172.408 464.192 167.984C464.192 163.56 467.768 159.984 472.192 159.984H503.808C508.232 159.984 511.808 163.56 511.808 167.984C511.808 172.408 508.224 175.984 503.808 175.984Z" fill="#CFD8B9"/>
<path d="M503.808 143.984H472.192C467.768 143.984 464.192 140.408 464.192 135.984C464.192 131.56 467.768 127.984 472.192 127.984H503.808C508.232 127.984 511.808 131.56 511.808 135.984C511.808 140.408 508.224 143.984 503.808 143.984Z" fill="#CFD8B9"/>
<path d="M503.808 111.984H472.192C467.768 111.984 464.192 108.408 464.192 103.984C464.192 99.5604 467.768 95.9844 472.192 95.9844H503.808C508.232 95.9844 511.808 99.5604 511.808 103.984C511.808 108.408 508.224 111.984 503.808 111.984Z" fill="#CFD8B9"/>
<path d="M503.808 79.9844H472.192C467.768 79.9844 464.192 76.4084 464.192 71.9844C464.192 67.5604 467.768 63.9844 472.192 63.9844H503.808C508.232 63.9844 511.808 67.5604 511.808 71.9844C511.808 76.4084 508.224 79.9844 503.808 79.9844Z" fill="#CFD8B9"/>
<path d="M352.016 311.872H159.968C155.544 311.872 151.968 308.296 151.968 303.872C151.968 299.448 155.544 295.872 159.968 295.872H352.016C356.44 295.872 360.016 299.448 360.016 303.872C360.016 308.296 356.44 311.872 352.016 311.872Z" fill="#CFD8B9"/>
<path d="M296.016 335.888H215.968C211.544 335.888 207.968 332.312 207.968 327.888C207.968 323.464 211.544 319.888 215.968 319.888H296.016C300.44 319.888 304.016 323.464 304.016 327.888C304.016 332.312 300.44 335.888 296.016 335.888Z" fill="#CFD8B9"/>
</svg>
