<svg width="480" height="512" viewBox="0 0 480 512" fill="none" xmlns="http://www.w3.org/2000/svg">
<path d="M224 64H112C107.576 64 104 60.424 104 56C104 51.576 107.576 48 112 48H224C228.424 48 232 51.576 232 56C232 60.424 228.424 64 224 64Z" fill="#CFD8B9"/>
<path d="M224 120C219.576 120 216 116.424 216 112V56C216 51.576 219.576 48 224 48C228.424 48 232 51.576 232 56V112C232 116.424 228.424 120 224 120Z" fill="#CFD8B9"/>
<path d="M112 120C107.576 120 104 116.424 104 112V56C104 51.576 107.576 48 112 48C116.424 48 120 51.576 120 56V112C120 116.424 116.424 120 112 120Z" fill="#CFD8B9"/>
<path d="M272 120H64C59.576 120 56 116.424 56 112C56 107.576 59.576 104 64 104H272C276.424 104 280 107.576 280 112C280 116.424 276.424 120 272 120Z" fill="#CFD8B9"/>
<path d="M272 167.992C267.576 167.992 264 164.416 264 159.992V112C264 107.576 267.576 104 272 104C276.424 104 280 107.576 280 112V159.992C280 164.416 276.424 167.992 272 167.992Z" fill="#CFD8B9"/>
<path d="M64 512C59.576 512 56 508.424 56 504V112C56 107.576 59.576 104 64 104C68.424 104 72 107.576 72 112V504C72 508.424 68.424 512 64 512Z" fill="#CFD8B9"/>
<path d="M168 64C163.576 64 160 60.424 160 56V8C160 3.576 163.576 0 168 0C172.424 0 176 3.576 176 8V56C176 60.424 172.424 64 168 64Z" fill="#CFD8B9"/>
<path d="M328 512H8C3.576 512 0 508.424 0 504C0 499.576 3.576 496 8 496H328C332.424 496 336 499.576 336 504C336 508.424 332.424 512 328 512Z" fill="#CFD8B9"/>
<path d="M24 512C19.576 512 16 508.424 16 504V472C16 467.576 19.576 464 24 464C28.424 464 32 467.576 32 472V504C32 508.424 28.424 512 24 512Z" fill="#CFD8B9"/>
<path d="M24 480C10.768 480 0 469.232 0 456C0 442.768 10.768 432 24 432C37.232 432 48 442.768 48 456C48 469.232 37.232 480 24 480ZM24 448C19.584 448 16 451.584 16 456C16 460.416 19.584 464 24 464C28.416 464 32 460.416 32 456C32 451.584 28.416 448 24 448Z" fill="#CFD8B9"/>
<path d="M120 472C115.576 472 112 468.424 112 464V160.016C112 155.592 115.576 152.016 120 152.016C124.424 152.016 128 155.592 128 160.016V464C128 468.424 124.424 472 120 472Z" fill="#CFD8B9"/>
<path d="M168 448C163.576 448 160 444.424 160 440V160.016C160 155.592 163.576 152.016 168 152.016C172.424 152.016 176 155.592 176 160.016V440C176 444.424 172.424 448 168 448Z" fill="#CFD8B9"/>
<path d="M216.016 472C211.592 472 208.016 468.424 208.016 464V160.016C208.016 155.592 211.592 152.016 216.016 152.016C220.44 152.016 224.016 155.592 224.016 160.016V464C224.016 468.424 220.44 472 216.016 472Z" fill="#CFD8B9"/>
<path d="M168 512C163.576 512 160 508.424 160 504V480C160 475.576 163.576 472 168 472C172.424 472 176 475.576 176 480V504C176 508.424 172.424 512 168 512Z" fill="#CFD8B9"/>
<path d="M168 120C163.576 120 160 116.424 160 112V88C160 83.576 163.576 80 168 80C172.424 80 176 83.576 176 88V112C176 116.424 172.424 120 168 120Z" fill="#CFD8B9"/>
<path d="M471.968 511.983H215.968C211.544 511.983 207.968 508.407 207.968 503.983V159.991C207.968 155.567 211.544 151.991 215.968 151.991H471.968C476.392 151.991 479.968 155.567 479.968 159.991V503.983C479.968 508.407 476.392 511.983 471.968 511.983ZM223.968 495.983H463.968V167.991H223.968V495.983Z" fill="#CFD8B9"/>
<path d="M303.96 199.992C300.376 199.992 297.12 197.568 296.208 193.928L288.208 161.928C287.128 157.648 289.736 153.304 294.032 152.232C298.312 151.152 302.656 153.752 303.728 158.056L311.728 190.056C312.808 194.336 310.2 198.68 305.904 199.752C305.256 199.912 304.6 199.992 303.96 199.992Z" fill="#CFD8B9"/>
<path d="M383.968 199.991H303.968C299.544 199.991 295.968 196.415 295.968 191.991C295.968 187.567 299.544 183.991 303.968 183.991H383.968C388.392 183.991 391.968 187.567 391.968 191.991C391.968 196.415 388.392 199.991 383.968 199.991Z" fill="#CFD8B9"/>
<path d="M383.976 199.991C383.336 199.991 382.68 199.911 382.032 199.751C377.744 198.679 375.136 194.335 376.208 190.055L384.208 158.055C385.28 153.759 389.608 151.151 393.904 152.231C398.192 153.303 400.8 157.647 399.728 161.927L391.728 193.927C390.816 197.567 387.56 199.991 383.976 199.991Z" fill="#CFD8B9"/>
<path d="M301.968 191.991H239.968C235.544 191.991 231.968 188.415 231.968 183.991C231.968 179.567 235.544 175.991 239.968 175.991H301.968C306.392 175.991 309.968 179.567 309.968 183.991C309.968 188.415 306.392 191.991 301.968 191.991Z" fill="#CFD8B9"/>
<path d="M447.968 191.991H385.968C381.544 191.991 377.968 188.415 377.968 183.991C377.968 179.567 381.544 175.991 385.968 175.991H447.968C452.392 175.991 455.968 179.567 455.968 183.991C455.968 188.415 452.392 191.991 447.968 191.991Z" fill="#CFD8B9"/>
<path d="M447.968 487.983C443.544 487.983 439.968 484.407 439.968 479.983V183.991C439.968 179.567 443.544 175.991 447.968 175.991C452.392 175.991 455.968 179.567 455.968 183.991V479.983C455.968 484.407 452.392 487.983 447.968 487.983Z" fill="#CFD8B9"/>
<path d="M447.968 487.983H239.968C235.544 487.983 231.968 484.407 231.968 479.983C231.968 475.559 235.544 471.983 239.968 471.983H447.968C452.392 471.983 455.968 475.559 455.968 479.983C455.968 484.407 452.392 487.983 447.968 487.983Z" fill="#CFD8B9"/>
<path d="M239.968 487.983C235.544 487.983 231.968 484.407 231.968 479.983V183.991C231.968 179.567 235.544 175.991 239.968 175.991C244.392 175.991 247.968 179.567 247.968 183.991V479.983C247.968 484.407 244.392 487.983 239.968 487.983Z" fill="#CFD8B9"/>
<path d="M287.968 287.991C285.92 287.991 283.872 287.207 282.312 285.647L274.312 277.647C271.184 274.519 271.184 269.463 274.312 266.335C277.44 263.207 282.496 263.207 285.624 266.335L293.624 274.335C296.752 277.463 296.752 282.519 293.624 285.647C292.064 287.207 290.016 287.991 287.968 287.991Z" fill="#CFD8B9"/>
<path d="M287.968 287.991C285.92 287.991 283.872 287.207 282.312 285.647C279.184 282.519 279.184 277.463 282.312 274.335L306.312 250.335C309.44 247.207 314.496 247.207 317.624 250.335C320.752 253.463 320.752 258.519 317.624 261.647L293.624 285.647C292.064 287.207 290.016 287.991 287.968 287.991Z" fill="#CFD8B9"/>
<path d="M407.968 263.991H343.968C339.544 263.991 335.968 260.415 335.968 255.991C335.968 251.567 339.544 247.991 343.968 247.991H407.968C412.392 247.991 415.968 251.567 415.968 255.991C415.968 260.415 412.392 263.991 407.968 263.991Z" fill="#CFD8B9"/>
<path d="M367.968 287.991H344.72C340.296 287.991 336.72 284.415 336.72 279.991C336.72 275.567 340.296 271.991 344.72 271.991H367.968C372.392 271.991 375.968 275.567 375.968 279.991C375.968 284.415 372.392 287.991 367.968 287.991Z" fill="#CFD8B9"/>
<path d="M287.968 359.991C285.92 359.991 283.872 359.207 282.312 357.647L274.312 349.647C271.184 346.519 271.184 341.463 274.312 338.335C277.44 335.207 282.496 335.207 285.624 338.335L293.624 346.335C296.752 349.463 296.752 354.519 293.624 357.647C292.064 359.207 290.016 359.991 287.968 359.991Z" fill="#CFD8B9"/>
<path d="M287.968 359.991C285.92 359.991 283.872 359.207 282.312 357.647C279.184 354.519 279.184 349.463 282.312 346.335L306.312 322.335C309.44 319.207 314.496 319.207 317.624 322.335C320.752 325.463 320.752 330.519 317.624 333.647L293.624 357.647C292.064 359.207 290.016 359.991 287.968 359.991Z" fill="#CFD8B9"/>
<path d="M407.968 335.991H343.968C339.544 335.991 335.968 332.415 335.968 327.991C335.968 323.567 339.544 319.991 343.968 319.991H407.968C412.392 319.991 415.968 323.567 415.968 327.991C415.968 332.415 412.392 335.991 407.968 335.991Z" fill="#CFD8B9"/>
<path d="M367.968 359.991H344.72C340.296 359.991 336.72 356.415 336.72 351.991C336.72 347.567 340.296 343.991 344.72 343.991H367.968C372.392 343.991 375.968 347.567 375.968 351.991C375.968 356.415 372.392 359.991 367.968 359.991Z" fill="#CFD8B9"/>
<path d="M287.968 431.991C285.92 431.991 283.872 431.207 282.312 429.647L274.312 421.647C271.184 418.519 271.184 413.463 274.312 410.335C277.44 407.207 282.496 407.207 285.624 410.335L293.624 418.335C296.752 421.463 296.752 426.519 293.624 429.647C292.064 431.207 290.016 431.991 287.968 431.991Z" fill="#CFD8B9"/>
<path d="M287.968 431.991C285.92 431.991 283.872 431.207 282.312 429.647C279.184 426.519 279.184 421.463 282.312 418.335L306.312 394.335C309.44 391.207 314.496 391.207 317.624 394.335C320.752 397.463 320.752 402.519 317.624 405.647L293.624 429.647C292.064 431.207 290.016 431.991 287.968 431.991Z" fill="#CFD8B9"/>
<path d="M407.968 407.991H343.968C339.544 407.991 335.968 404.415 335.968 399.991C335.968 395.567 339.544 391.991 343.968 391.991H407.968C412.392 391.991 415.968 395.567 415.968 399.991C415.968 404.415 412.392 407.991 407.968 407.991Z" fill="#CFD8B9"/>
<path d="M367.968 431.991H344.72C340.296 431.991 336.72 428.415 336.72 423.991C336.72 419.567 340.296 415.991 344.72 415.991H367.968C372.392 415.991 375.968 419.567 375.968 423.991C375.968 428.415 372.392 431.991 367.968 431.991Z" fill="#CFD8B9"/>
</svg>
